<svg version="1.1" id="Layer_1" xmlns="http://www.w3.org/2000/svg" xmlns:xlink="http://www.w3.org/1999/xlink" x="0px" y="0px"
	 width="100%" viewBox="0 0 1024 1024" enable-background="new 0 0 1024 1024" xml:space="preserve">
<path fill="#000000" opacity="1.000000" stroke="none" 
	d="
M220.999939,960.321411 
	C175.505112,960.323059 130.510300,960.310303 85.515526,960.352417 
	C81.970467,960.355713 78.584160,959.986206 75.324471,958.487976 
	C70.189201,956.127747 67.536560,952.753052 67.539330,946.549683 
	C67.668365,657.416443 67.650528,368.283112 67.653030,79.149788 
	C67.653099,71.572952 72.875450,66.362259 81.150253,65.687065 
	C82.475342,65.578941 83.815239,65.643349 85.148293,65.643356 
	C369.782135,65.644043 654.415955,65.644989 939.049805,65.661888 
	C942.358765,65.662086 945.655029,65.442139 948.929932,66.571182 
	C956.195496,69.076080 959.347351,73.235062 959.347351,80.902542 
	C959.348450,368.036072 959.348328,655.169617 959.347778,942.303162 
	C959.347717,953.156555 952.869690,959.856079 941.914795,960.302734 
	C940.084534,960.377319 938.248962,960.327454 936.415894,960.327454 
	C698.110596,960.325745 459.805267,960.323364 220.999939,960.321411 
M667.500061,99.383560 
	C480.354919,99.374519 293.209747,99.365349 106.064590,99.356987 
	C99.363533,99.356689 99.350960,99.360443 99.350899,106.451187 
	C99.348557,377.253784 99.348396,648.056396 99.350227,918.859009 
	C99.350273,925.634888 99.362206,925.645813 106.228363,925.645935 
	C377.364258,925.649109 648.500183,925.650513 919.636047,925.650208 
	C926.638367,925.650208 926.649414,925.640198 926.649475,918.403992 
	C926.651245,647.768066 926.651306,377.132080 926.649170,106.496124 
	C926.649170,99.365814 926.637207,99.364510 919.471619,99.365036 
	C835.814453,99.371155 752.157288,99.377693 667.500061,99.383560 
z"/>
<path fill="#000000" opacity="1.000000" stroke="none" 
	d="
M308.706573,312.188354 
	C320.848206,317.201569 327.642761,325.726990 332.000549,338.014832 
	C339.386810,358.842163 348.180267,379.209290 357.789459,399.169312 
	C358.513519,400.673248 359.125824,402.059723 360.723877,403.013123 
	C380.456116,414.785583 400.139008,426.640808 419.844940,438.457458 
	C420.387848,438.783051 421.045746,438.916779 421.968628,439.257599 
	C428.571686,430.210480 436.304504,422.226532 444.314301,414.242065 
	C441.655487,410.417725 437.766357,408.658234 434.622284,406.063599 
	C411.817841,387.244537 399.935913,363.302765 401.837372,333.558197 
	C402.880585,317.239655 409.500122,302.757751 419.897217,289.993378 
	C423.893066,285.087738 430.286102,284.196198 434.956329,279.979645 
	C433.103180,274.927979 429.545898,270.928802 426.228241,266.908539 
	C393.533783,227.290024 353.985840,197.680618 303.718628,184.099594 
	C288.925934,180.102936 273.844574,177.896133 258.400330,178.206711 
	C246.954391,178.436920 240.923126,171.594498 241.595764,160.189072 
	C242.094193,151.737198 248.779648,145.885513 258.214447,145.646225 
	C277.859100,145.148010 296.873505,148.857224 315.655731,154.188553 
	C365.065735,168.213516 405.309357,196.440643 439.472534,234.078079 
	C443.388367,238.392136 447.192352,242.816528 450.875031,247.331039 
	C454.548462,251.834274 458.004089,256.515228 461.858551,261.511414 
	C495.756165,242.746521 529.767700,242.858185 563.925781,261.480927 
	C568.883789,255.236069 573.597656,249.060394 578.557495,243.089127 
	C619.194946,194.165482 669.948425,161.720322 732.651611,148.948730 
	C744.215454,146.593369 755.921448,145.007294 767.805054,145.663589 
	C775.232727,146.073776 781.872437,151.194046 783.253784,157.649658 
	C784.949951,165.576660 782.070129,172.778976 775.776489,176.115402 
	C773.099792,177.534424 770.183350,178.317917 767.152100,178.278076 
	C729.993286,177.789581 696.650940,190.151276 665.290955,208.829788 
	C636.560425,225.942093 613.071045,248.832397 593.218872,275.588501 
	C592.334412,276.780518 591.255005,277.883789 591.051758,279.934601 
	C594.017090,282.144653 597.071167,284.661865 600.356812,286.827759 
	C614.354614,296.055084 620.637939,310.162201 623.163879,325.699890 
	C628.997009,361.581116 615.039856,389.319885 586.160583,410.281158 
	C584.700378,411.341003 582.969971,412.097870 581.734680,414.280975 
	C589.286987,421.564667 595.922241,429.824219 602.522644,438.127319 
	C604.830017,441.029877 607.136169,437.955566 609.021240,436.841827 
	C620.057922,430.321136 630.942993,423.544617 641.942749,416.960602 
	C648.802246,412.854828 655.733765,408.864716 662.712097,404.964355 
	C666.053040,403.097107 668.291748,400.550934 669.908142,397.036133 
	C680.134277,374.799500 689.657593,352.268738 698.082825,329.294556 
	C700.291260,323.272522 703.886047,318.987061 709.409729,316.001343 
	C734.600586,302.385071 759.483093,288.159943 786.205017,277.600372 
	C790.267517,275.994995 794.247070,274.454712 798.747131,275.654144 
	C801.592834,276.412598 803.973328,277.752777 805.663025,280.199188 
	C810.628418,287.388641 807.705811,300.381500 799.763611,303.913300 
	C779.800415,312.790680 761.322632,324.581787 741.423828,333.495575 
	C730.410400,338.429077 723.663391,345.768250 719.402222,357.260864 
	C711.890503,377.520325 702.703369,397.157318 694.278137,417.080475 
	C692.515320,421.248993 689.651306,424.225037 685.806213,426.557220 
	C668.157104,437.261993 650.576355,448.079437 632.963623,458.844208 
	C631.266052,459.881775 629.468689,460.772217 627.769287,463.058685 
	C634.721924,468.376923 641.617249,473.733582 648.597473,478.977112 
	C691.595642,511.277313 733.093140,545.488708 775.422302,578.641296 
	C792.065430,591.676331 808.035217,605.582153 823.220642,620.334045 
	C850.536255,646.869690 867.048950,679.424500 876.319885,715.975342 
	C881.090149,734.782166 882.784363,753.916260 882.355652,773.291931 
	C881.922241,792.883850 866.993347,805.041443 847.598511,802.115662 
	C805.679749,795.791992 770.642029,775.664856 738.803650,748.857971 
	C725.489929,737.648193 713.713196,725.008911 703.124390,711.216797 
	C693.811279,699.086304 687.769775,685.117004 680.883911,671.648621 
	C658.749695,628.355347 638.703003,584.069824 619.065918,539.606750 
	C612.349854,524.399841 606.599121,508.767120 600.363953,493.346527 
	C599.709351,491.727478 599.574463,489.673645 596.895020,488.788635 
	C592.035400,495.246948 588.136597,502.580688 582.755066,508.868896 
	C577.425110,515.096802 570.601990,519.608765 564.166260,525.486633 
	C567.457947,528.476685 570.290833,531.248047 573.326172,533.776367 
	C602.809753,558.335022 618.834534,590.528503 626.285522,627.485229 
	C629.580078,643.826172 631.009888,660.419678 630.179382,677.072937 
	C628.167908,717.405212 617.549683,755.314880 597.436157,790.465332 
	C581.523621,818.274109 561.692078,843.002563 538.716125,865.241516 
	C533.337708,870.447571 527.656555,875.363281 521.883484,880.132812 
	C516.130920,884.885498 510.841156,884.862122 505.163635,880.220215 
	C476.284576,856.608521 451.797943,829.138245 432.447479,797.172058 
	C416.610016,771.009216 405.737976,742.883301 399.993347,712.895264 
	C395.688416,690.422791 395.312225,667.705811 397.566437,644.920715 
	C400.329681,616.990234 408.787018,591.017456 423.619812,567.154907 
	C432.613556,552.686035 444.808990,541.119446 457.369873,529.879944 
	C458.708282,528.682373 460.391998,527.762634 461.181793,525.023438 
	C447.972931,515.922729 436.794861,504.362549 429.064148,490.251343 
	C426.165802,491.244598 425.930817,492.879303 425.440338,494.217010 
	C408.224457,541.172974 386.119232,585.982422 364.997131,631.207214 
	C355.068054,652.466553 344.022217,673.211304 333.226685,694.056824 
	C323.757782,712.340698 310.015625,727.367371 295.258087,741.391785 
	C272.832367,762.703552 247.291611,779.471069 218.532883,790.991821 
	C202.602997,797.373413 186.191742,802.280151 168.761719,802.355591 
	C157.188187,802.405640 149.673721,797.097351 145.690125,786.186401 
	C142.951584,778.685669 142.897232,770.789978 143.008286,763.035400 
	C143.508026,728.141846 152.398758,695.379211 168.992111,664.708374 
	C179.228455,645.787659 192.629807,629.553345 208.572830,614.972290 
	C242.180450,584.235596 278.882690,557.399109 314.341339,528.987671 
	C341.247406,507.428955 368.558380,486.415039 396.099243,465.686737 
	C397.122437,464.916687 398.445282,464.344238 398.973114,462.238312 
	C394.126801,459.207672 389.080414,456.101227 384.083282,452.917542 
	C370.461945,444.239441 356.729462,435.743835 342.660919,427.807037 
	C336.782379,424.490601 332.938110,419.860291 330.330872,413.442352 
	C321.063110,390.629089 311.230377,368.045715 301.689697,345.342468 
	C300.581238,342.704742 298.845551,341.032501 296.324127,339.791870 
	C273.470825,328.546967 251.344925,315.839142 228.033707,305.529846 
	C220.970505,302.406128 218.127151,297.219421 217.681137,289.983765 
	C216.975540,278.536530 224.996948,272.346436 235.707443,276.582397 
	C252.592377,283.260284 269.069275,290.870636 285.082367,299.454712 
	C292.858215,303.623016 300.618378,307.820679 308.706573,312.188354 
M715.974243,676.631165 
	C725.652527,694.812317 739.049133,709.938049 754.410400,723.457764 
	C781.276672,747.103455 811.515625,764.035278 847.153625,770.380066 
	C851.449280,771.144897 852.987305,769.877258 852.686890,765.572083 
	C851.981873,755.468506 851.456177,745.362610 849.681335,735.356628 
	C842.294312,693.710999 823.642334,658.419922 790.921570,631.088989 
	C768.316467,612.207397 745.898560,593.108765 722.381592,575.326538 
	C694.906250,554.551147 668.977661,531.778137 640.861267,511.813812 
	C639.285461,510.694885 637.821045,509.473877 635.226990,509.130127 
	C636.185852,511.341919 636.863647,513.015381 637.627014,514.648743 
	C643.052856,526.257568 648.868225,537.700439 653.867493,549.489624 
	C672.214722,592.755554 694.350830,634.158630 715.974243,676.631165 
M318.979095,658.573120 
	C345.409332,610.595520 368.022400,560.817993 390.061707,510.041290 
	C386.772095,510.415588 385.405731,511.992126 383.870880,513.191040 
	C353.320007,537.055542 322.800537,560.960205 292.256470,584.833435 
	C268.648468,603.285461 244.558060,621.318909 223.185547,642.270569 
	C188.624390,676.151062 173.909332,718.729370 173.316208,766.630249 
	C173.253601,771.686462 176.322205,770.821228 179.344116,770.261719 
	C212.978638,764.034363 241.726517,747.993652 267.655884,726.280945 
	C289.734039,707.793213 306.427643,685.218933 318.979095,658.573120 
M491.795593,674.156189 
	C490.318787,673.912720 488.848297,673.508850 487.364197,673.450012 
	C468.037537,672.684631 449.114532,669.437500 430.582916,663.997864 
	C426.347717,662.754639 425.562103,664.793518 425.351624,668.106873 
	C424.800873,676.775635 425.975830,685.372009 426.505737,693.992065 
	C426.728943,697.623169 428.736145,699.635620 432.395599,701.014893 
	C449.247864,707.366394 466.913727,709.158142 484.596710,710.543274 
	C501.004242,711.828491 517.439575,712.048523 533.935364,710.833679 
	C551.679260,709.526855 569.185791,707.261902 586.526855,703.237488 
	C594.946594,701.283386 601.343445,698.448730 599.872375,688.140320 
	C599.785217,687.529785 600.266663,686.859375 600.304443,686.206482 
	C600.750244,678.501953 601.164856,670.795288 600.514587,662.406311 
	C564.827576,673.645935 528.929382,675.325928 491.795593,674.156189 
M571.575928,577.616943 
	C558.771301,579.609863 545.865417,580.484741 532.958069,581.550110 
	C507.266724,583.670715 481.833893,581.496338 456.462250,577.991150 
	C452.946075,577.505371 451.237213,578.308838 449.591705,581.026733 
	C445.361969,588.013000 441.465912,595.171875 438.169037,602.641479 
	C437.137177,604.979248 435.185242,607.093262 436.035736,610.935120 
	C487.631317,621.880737 539.271301,621.319153 591.505920,610.492004 
	C587.423401,598.891968 582.418945,588.998718 576.478638,579.547424 
	C575.478455,577.956116 574.249512,577.143860 571.575928,577.616943 
M453.678864,756.284424 
	C450.367889,755.579834 447.056915,754.875244 443.278107,754.071167 
	C448.300812,766.570557 455.072205,777.242676 461.815369,787.936523 
	C463.171631,790.087402 465.008514,791.169739 467.450592,791.584106 
	C480.563416,793.809326 493.809784,794.925476 507.059021,795.492371 
	C522.345947,796.146362 537.587036,794.560730 552.706543,792.380493 
	C556.579773,791.822083 561.403381,792.405396 564.019348,788.279236 
	C570.870728,777.472473 577.311768,766.430237 582.794128,753.725525 
	C539.765137,763.932251 497.205902,765.232117 453.678864,756.284424 
M429.343903,335.095306 
	C430.811890,343.631683 437.661713,350.537048 445.681641,351.565521 
	C453.837921,352.611511 462.005981,348.024384 465.583710,340.388611 
	C469.391998,332.260773 467.732300,323.930328 460.703491,317.890869 
	C454.569794,312.620514 447.472748,311.725433 440.274323,315.269684 
	C432.574371,319.060852 428.707123,325.453888 429.343903,335.095306 
M583.002441,350.626099 
	C584.084595,350.207092 585.226196,349.898346 586.239685,349.351929 
	C595.285889,344.474548 599.049561,333.708740 594.919373,324.640045 
	C590.646851,315.258636 579.830383,310.906708 570.250122,314.714417 
	C560.990906,318.394531 556.113953,328.986145 559.288025,338.521210 
	C562.537170,348.281769 572.133179,353.428162 583.002441,350.626099 
z"/>
</svg>