<svg version="1.1" id="Layer_1" xmlns="http://www.w3.org/2000/svg" xmlns:xlink="http://www.w3.org/1999/xlink" x="0px" y="0px"
	 width="100%" viewBox="0 0 496 496" enable-background="new 0 0 496 496" xml:space="preserve">
<path fill="#000000" opacity="1.000000" stroke="none" 
	d="
M203.000000,32.005875 
	C287.322266,32.004246 371.144501,32.001183 454.966766,32.008667 
	C457.130371,32.008862 459.321228,31.928268 461.452332,32.224247 
	C467.173309,33.018810 470.235260,36.572067 470.369476,42.397724 
	C470.427032,44.895233 470.311737,47.396221 470.311707,49.895630 
	C470.310089,185.044449 470.311127,320.193268 470.316589,455.342102 
	C470.317047,466.555756 467.060120,469.898102 455.697723,469.905365 
	C387.206818,469.949249 318.715881,469.955139 250.224976,469.971313 
	C182.067322,469.987396 113.909676,470.000793 45.752022,470.014801 
	C34.308872,470.017151 30.494629,465.781342 31.504740,454.324341 
	C31.709080,452.006683 31.662401,449.663300 31.662558,447.331757 
	C31.671259,316.182404 31.675508,185.033051 31.655737,53.883694 
	C31.655312,51.058998 31.389885,48.233162 31.215294,45.409889 
	C30.689726,36.911007 35.013386,32.155170 43.521717,32.007973 
	C47.853073,31.933041 52.186974,32.009903 56.519722,32.009865 
	C105.179817,32.009453 153.839905,32.007423 203.000000,32.005875 
M225.500000,451.925568 
	C298.661621,451.933044 371.823242,451.939911 444.984863,451.948914 
	C452.688171,451.949860 452.690247,451.955719 452.690063,444.399902 
	C452.686768,315.241455 452.683105,186.083023 452.678650,56.924576 
	C452.678375,49.330250 452.674744,49.314346 445.082428,49.314308 
	C315.424011,49.313671 185.765610,49.316601 56.107197,49.321846 
	C49.347561,49.322121 49.333298,49.335011 49.333355,56.341278 
	C49.334400,185.833038 49.338173,315.324799 49.345608,444.816559 
	C49.346012,451.881042 49.363270,451.899963 56.510704,451.901520 
	C112.507133,451.913696 168.503571,451.918091 225.500000,451.925568 
z"/>
<path fill="#000000" opacity="1.000000" stroke="none" 
	d="
M224.683136,256.770966 
	C231.428818,240.409836 238.217117,224.476944 244.623779,208.392059 
	C248.638733,198.311920 241.614380,189.477417 231.384872,191.292557 
	C226.625900,192.136993 223.947281,195.337219 222.188522,199.575027 
	C210.253464,228.332840 198.303711,257.084534 186.355148,285.836731 
	C184.694046,289.833954 183.072266,293.849213 181.314926,297.803955 
	C180.535812,299.557281 179.873581,301.893463 177.047623,300.402924 
	C174.608887,299.116638 175.801941,297.413727 176.526154,295.728119 
	C178.234863,291.751099 179.635590,287.617676 181.632217,283.793640 
	C185.400055,276.577179 183.436890,270.265411 179.122025,264.216156 
	C175.920853,259.728302 171.589340,256.743530 166.329895,255.096252 
	C160.846405,253.378815 155.400635,255.222626 152.301300,259.859375 
	C149.356720,264.264648 149.310867,270.278900 153.286987,274.181580 
	C162.409760,283.135864 162.245575,292.573914 157.499466,303.782684 
	C149.195053,323.394989 150.030670,343.123505 160.269363,362.018768 
	C165.644928,371.939209 165.643845,381.694733 160.809052,391.643677 
	C159.999176,393.310181 159.523239,395.878967 156.664474,394.719818 
	C153.765656,393.544464 155.123611,391.359863 155.941605,389.689209 
	C160.411453,380.560303 159.499771,372.014038 154.848587,362.999176 
	C144.289276,342.533234 143.866455,321.452545 153.232697,300.385681 
	C156.879837,292.182434 156.427551,285.181061 149.928329,278.456268 
	C143.790192,272.105072 143.358292,263.983582 147.925644,256.917358 
	C152.292618,250.161102 160.299774,247.506882 168.548813,250.081161 
	C175.898422,252.374756 180.386047,256.469238 188.053696,268.152100 
	C191.058243,260.950317 193.806183,254.119232 196.744247,247.370911 
	C203.315903,232.276855 208.219116,216.500931 215.467636,201.684677 
	C216.588272,199.394058 216.670914,197.443802 215.233429,194.840027 
	C206.348114,178.745758 208.762466,155.545120 220.196106,141.153687 
	C224.296600,135.992416 229.013687,131.636765 234.566284,128.197708 
	C237.521423,126.367416 241.199905,125.100258 243.485992,128.565002 
	C245.689651,131.904816 244.329681,135.083954 240.767639,137.395874 
	C229.567245,144.665436 222.758698,154.814331 220.679016,168.164520 
	C219.601639,175.080643 222.120804,181.226959 223.751755,188.092911 
	C231.591095,184.455109 239.088486,183.997849 245.736038,190.037384 
	C252.273529,195.976929 252.471863,203.354706 249.736603,211.518539 
	C257.311981,215.209610 264.957153,215.082077 272.664154,213.390594 
	C291.541901,209.247391 305.704681,193.123245 306.482269,173.769226 
	C306.995453,160.996521 302.038239,150.036346 292.029663,141.694824 
	C289.985596,139.991211 287.847565,138.393280 285.686951,136.838211 
	C282.667206,134.664764 281.544769,131.726990 283.539825,128.629486 
	C285.580475,125.461174 288.871613,126.276474 291.570465,127.857254 
	C303.126831,134.626129 311.191559,144.433578 314.935028,157.255753 
	C323.648804,187.102539 305.785614,216.977875 275.456665,223.714920 
	C267.070770,225.577682 258.602509,225.627853 250.296249,223.338287 
	C246.319931,222.242264 244.381592,223.169479 242.842880,227.139862 
	C241.523773,230.543579 241.586670,234.318268 239.461716,237.342514 
	C241.073151,239.558792 243.266678,238.601364 245.118057,238.729889 
	C253.741196,239.328583 259.610504,244.712418 260.698242,253.300644 
	C260.959656,255.364624 261.377197,256.636292 264.045410,256.388245 
	C279.440552,254.957153 286.800903,262.486267 285.586609,278.214050 
	C286.275452,279.353851 287.340546,278.832031 288.277771,278.798889 
	C303.297882,278.267303 311.949280,290.123962 306.350281,304.023438 
	C298.759888,322.866638 290.810699,341.565033 283.069580,360.347870 
	C279.951630,367.913147 276.627686,375.333252 271.445160,381.787262 
	C267.443634,386.770538 262.907837,391.175659 257.508301,394.560028 
	C247.271439,400.976349 239.953705,409.735504 235.403046,420.903809 
	C234.689285,422.655548 234.601334,425.891998 231.299789,424.383942 
	C228.259872,422.995361 230.207230,420.712189 230.893860,418.827545 
	C235.274155,406.804840 243.041199,397.539917 253.792770,390.668182 
	C264.087219,384.088715 271.285828,374.973053 275.923492,363.685638 
	C283.959503,344.127228 292.142609,324.629272 300.259369,305.104004 
	C300.898499,303.566467 301.594513,302.043976 302.104980,300.463074 
	C304.191803,294.000519 301.407623,287.512543 295.544861,285.034485 
	C289.642700,282.539825 282.930298,285.010529 280.043091,291.225922 
	C276.818726,298.167145 274.048859,305.319336 271.071686,312.375671 
	C270.489441,313.755768 269.907166,315.138885 269.245972,316.481720 
	C268.584167,317.825775 267.452820,318.545197 265.973694,318.061188 
	C264.342682,317.527496 264.281128,316.088959 264.679749,314.752411 
	C265.201202,313.003967 265.904022,311.304840 266.601227,309.614380 
	C270.727722,299.609192 274.942657,289.639893 278.994385,279.604645 
	C282.250061,271.540985 279.933563,264.796661 273.156158,262.001709 
	C266.481445,259.249084 259.978119,262.461487 256.518768,270.484497 
	C252.431412,279.963989 248.538406,289.527344 244.563248,299.055206 
	C244.050293,300.284729 243.682922,301.597961 243.013077,302.733826 
	C241.948090,304.539673 241.791840,308.117249 238.497192,306.617615 
	C235.650772,305.321960 237.610641,302.858612 238.370224,300.981049 
	C240.680344,295.270813 243.117767,289.612183 245.449860,283.910675 
	C248.538193,276.360321 251.755203,268.855347 254.578796,261.206055 
	C257.169281,254.188278 254.235001,247.852188 247.670929,245.293854 
	C241.513092,242.893860 235.125687,245.706039 232.226990,252.447922 
	C226.834259,264.990540 221.638443,277.617828 216.354568,290.207336 
	C215.839539,291.434448 215.360855,292.687042 214.722290,293.849274 
	C214.048920,295.074799 213.038239,296.100494 211.500534,295.485565 
	C209.765259,294.791595 209.583939,293.314819 210.195587,291.731781 
	C210.915588,289.868317 211.722534,288.038544 212.489441,286.193176 
	C216.514832,276.507263 220.539474,266.821045 224.683136,256.770966 
z"/>
<path fill="#000000" opacity="1.000000" stroke="none" 
	d="
M257.654602,140.002319 
	C257.664001,135.342407 257.652985,131.181686 257.689667,127.021400 
	C257.720703,123.503349 258.655457,120.741783 262.949097,120.686790 
	C267.191345,120.632446 268.340576,123.137115 268.327515,126.809731 
	C268.265961,144.117477 268.260254,161.425446 268.170898,178.733002 
	C268.151672,182.453369 267.399139,186.207672 262.688049,186.071732 
	C257.983765,185.935959 257.624298,182.194962 257.637573,178.445938 
	C257.682404,165.797989 257.654785,153.149811 257.654602,140.002319 
z"/>
</svg>