<svg version="1.1" id="Layer_1" xmlns="http://www.w3.org/2000/svg" xmlns:xlink="http://www.w3.org/1999/xlink" x="0px" y="0px"
	 width="100%" viewBox="0 0 496 496" enable-background="new 0 0 496 496" xml:space="preserve">
<path fill="#000000" opacity="1.000000" stroke="none" 
	d="
M161.999878,469.369904 
	C122.002304,469.370758 82.504738,469.374207 43.007179,469.369690 
	C35.191799,469.368774 31.670568,466.013519 31.665255,458.349579 
	C31.637058,417.685425 31.704403,377.021088 31.573765,336.357361 
	C31.560169,332.125488 32.598171,330.504822 37.135098,330.548370 
	C49.348778,330.665558 49.349648,330.461884 49.349514,342.642914 
	C49.349140,376.974121 49.445042,411.305878 49.243328,445.635895 
	C49.214329,450.571136 50.812950,451.740540 55.515293,451.736603 
	C185.840485,451.627197 316.165833,451.629669 446.490997,451.745697 
	C451.259705,451.749939 452.760956,450.409088 452.756622,445.562225 
	C452.640686,315.403717 452.630768,185.245026 452.773071,55.086555 
	C452.778931,49.737553 450.498230,49.286510 446.187469,49.289143 
	C316.028870,49.368645 185.870224,49.379604 55.711720,49.250072 
	C50.606834,49.244991 49.230991,50.780182 49.248741,55.793987 
	C49.419262,103.957077 49.352074,152.121017 49.346664,200.284714 
	C49.345875,207.336929 49.329750,207.412460 42.237278,207.333069 
	C30.150642,207.197784 31.687719,209.018509 31.673857,196.699295 
	C31.616846,146.035812 31.647627,95.372246 31.651606,44.708710 
	C31.652309,35.732075 34.662762,32.660252 43.447369,32.660049 
	C181.938828,32.656906 320.430267,32.655804 458.921722,32.656368 
	C468.063263,32.656406 470.342957,34.952854 470.343201,44.190563 
	C470.346863,181.515427 470.347626,318.840271 470.345673,456.165131 
	C470.345520,466.660126 467.611572,469.350128 456.981232,469.350922 
	C358.820770,469.358185 260.660339,469.363678 161.999878,469.369904 
z"/>
<path fill="#000000" opacity="1.000000" stroke="none" 
	d="
M190.000000,277.210907 
	C157.673813,277.206970 125.847610,277.190338 94.021454,277.219238 
	C91.334793,277.221649 88.695572,277.111877 86.161148,276.171112 
	C82.897591,274.959686 80.858673,272.682129 80.769363,269.122772 
	C80.686600,265.824310 82.285332,263.438324 85.306862,261.996735 
	C87.306236,261.042847 89.368813,260.679535 91.583237,260.679932 
	C172.565033,260.694183 253.546890,260.627625 334.528595,260.712311 
	C352.599121,260.731201 365.775024,246.446548 365.225800,228.289078 
	C364.700623,210.926056 352.085083,198.681519 335.247803,197.530243 
	C321.267975,196.574341 305.529968,206.203369 302.966644,220.972092 
	C302.485382,223.744904 301.452332,226.383118 301.268158,229.256653 
	C300.990814,233.583527 297.283203,237.345932 293.805603,237.220398 
	C290.136841,237.087952 286.445129,232.785995 286.481323,228.440536 
	C286.586609,215.793549 291.473511,204.976532 300.309509,196.255646 
	C313.248230,183.485504 328.873688,178.654373 346.506897,184.105347 
	C364.722412,189.736374 376.623566,202.450287 379.811279,221.142548 
	C384.552704,248.945389 365.483032,272.823853 338.854004,276.309082 
	C332.382843,277.156036 325.943085,277.190369 319.470917,277.192261 
	C276.480621,277.204834 233.490311,277.205597 190.000000,277.210907 
z"/>
<path fill="#000000" opacity="1.000000" stroke="none" 
	d="
M260.798676,291.889832 
	C281.140564,298.014374 292.967499,311.969666 295.799835,331.904388 
	C299.565857,358.410919 278.119232,383.153717 251.742065,384.478485 
	C226.030563,385.769806 205.249329,366.729431 201.836075,341.759369 
	C201.634705,340.286194 201.582916,338.746948 201.764877,337.275970 
	C202.233093,333.490448 206.128036,329.777435 209.393661,329.819702 
	C212.868027,329.864655 216.520493,333.728882 216.773590,337.793976 
	C217.492279,349.337158 221.966324,358.944550 232.252396,364.708313 
	C243.518951,371.021545 255.360138,371.199432 266.357574,364.193298 
	C277.585938,357.040100 282.606842,346.287598 280.649261,332.962921 
	C278.700470,319.698425 271.084686,310.958527 258.156006,307.018524 
	C254.150360,305.797821 250.083359,305.280273 245.867783,305.286102 
	C200.212555,305.349121 154.557220,305.326569 108.901909,305.323853 
	C106.902649,305.323761 104.896416,305.389801 102.905602,305.250793 
	C98.874557,304.969269 96.266281,302.732758 95.868507,298.770020 
	C95.450455,294.605225 97.598907,291.825653 101.733696,290.692719 
	C104.509491,289.932159 107.338890,289.990265 110.171021,289.989105 
	C155.659592,289.970795 201.148270,289.901276 246.636536,290.007385 
	C251.230164,290.018097 255.917404,290.370850 260.798676,291.889832 
z"/>
<path fill="#000000" opacity="1.000000" stroke="none" 
	d="
M180.838104,199.641266 
	C181.037491,174.750214 202.739212,153.728333 226.894577,153.360306 
	C251.573044,152.984314 273.316681,172.277756 275.109924,198.393646 
	C276.218933,214.544952 266.874573,233.293015 249.467316,242.071320 
	C242.360214,245.655380 235.030563,247.439911 226.966385,247.399841 
	C187.154083,247.201965 147.340286,247.309601 107.527008,247.304306 
	C105.695084,247.304062 103.826942,247.475464 102.038467,247.182922 
	C97.765373,246.483978 95.638771,243.636566 95.768089,239.477448 
	C95.893593,235.441360 98.294373,233.085922 102.380241,232.722031 
	C104.033951,232.574738 105.709526,232.661423 107.375153,232.661209 
	C146.688675,232.656097 186.002686,232.764343 225.315445,232.588638 
	C238.472351,232.529831 249.532043,227.613998 256.015289,215.563141 
	C266.631348,195.830292 254.264587,171.238968 232.084122,169.064362 
	C212.153503,167.110336 196.999908,179.409622 196.241196,199.070694 
	C196.079742,203.254669 192.597641,207.443558 188.834198,207.981155 
	C185.080048,208.517426 182.251923,205.715240 180.838104,199.641266 
z"/>
</svg>