<svg version="1.1" id="Layer_1" xmlns="http://www.w3.org/2000/svg" xmlns:xlink="http://www.w3.org/1999/xlink" x="0px" y="0px"
	 width="100%" viewBox="0 0 496 496" enable-background="new 0 0 496 496" xml:space="preserve">
<path fill="#000000" opacity="1.000000" stroke="none" 
	d="
M446.997559,469.354675 
	C312.201874,469.357819 177.905685,469.361755 43.609482,469.361237 
	C34.841042,469.361176 31.655489,466.206177 31.654999,457.440277 
	C31.647301,319.645050 31.647680,181.849808 31.655066,44.054565 
	C31.655504,35.879784 34.913666,32.660831 43.118546,32.660629 
	C181.746887,32.657219 320.375214,32.657249 459.003571,32.659966 
	C467.935486,32.660141 470.342987,35.014801 470.343262,43.769989 
	C470.347382,181.398605 470.348083,319.027222 470.344269,456.655823 
	C470.343994,466.469116 467.423279,469.336639 457.493927,469.351532 
	C454.161621,469.356537 450.829315,469.353668 446.997559,469.354675 
M452.663757,202.500092 
	C452.663361,154.006622 452.663605,105.513161 452.662018,57.019699 
	C452.661774,49.368546 452.658112,49.347530 445.124542,49.347374 
	C315.641052,49.344662 186.157578,49.347191 56.674107,49.350044 
	C49.360222,49.350208 49.351727,49.356121 49.351616,56.811359 
	C49.349728,185.961563 49.349743,315.111755 49.350769,444.261963 
	C49.350826,451.641388 49.356510,451.646881 56.633121,451.647064 
	C186.116608,451.650513 315.600098,451.652496 445.083588,451.654724 
	C452.658600,451.654846 452.666199,451.654327 452.666260,443.969421 
	C452.666748,363.812988 452.664673,283.656555 452.663757,202.500092 
z"/>
<path fill="#000000" opacity="1.000000" stroke="none" 
	d="
M296.570679,190.401215 
	C306.421143,184.990891 307.334473,185.130829 315.216248,192.992615 
	C318.163574,195.932495 321.175262,198.811493 324.038391,201.831299 
	C327.977539,205.986023 328.360748,209.462234 325.630707,214.470490 
	C325.234283,215.197723 324.900269,216.008331 324.339203,216.588821 
	C318.675476,222.448578 318.131866,228.639450 322.099060,235.830917 
	C323.570312,238.497910 325.166473,239.979874 327.883484,240.562851 
	C331.438690,241.325714 335.012451,242.002289 338.579041,242.711899 
	C342.418304,243.475739 344.290314,245.892670 344.311890,249.726105 
	C344.352203,256.887604 344.457062,264.053223 344.265472,271.209869 
	C344.157471,275.242920 342.452728,278.236877 337.768372,278.494690 
	C336.302094,278.575348 334.860077,279.134583 333.411530,279.493286 
	C322.889008,282.098846 322.961548,282.126373 319.234589,292.453186 
	C318.499146,294.490997 319.003326,295.996124 319.964417,297.585724 
	C321.682617,300.427460 323.439545,303.245850 325.191986,306.066711 
	C328.495270,311.384033 328.252472,314.635834 324.009705,318.973297 
	C319.817566,323.259003 315.410828,327.339355 311.311981,331.710236 
	C308.318024,334.902863 304.946808,335.150757 301.378418,333.431396 
	C298.258575,331.928131 295.317596,330.023041 292.399750,328.137421 
	C285.867706,323.916260 274.928101,328.519379 273.375793,336.059021 
	C269.566315,354.562164 270.496307,351.054871 255.261078,351.344940 
	C251.265335,351.421021 247.266312,351.306976 243.269547,351.350128 
	C239.205505,351.394012 236.670944,349.542786 235.746063,345.550720 
	C235.409851,344.099518 234.736877,342.651520 234.749161,341.206573 
	C234.826294,332.118652 229.092422,328.467560 221.398758,326.334930 
	C218.817932,325.619568 217.010880,326.398560 214.997833,327.818787 
	C201.107422,337.618225 200.396713,336.624573 188.937408,324.988464 
	C177.238907,313.109528 177.166626,313.180725 185.988693,299.186890 
	C189.876007,293.020721 185.830978,282.661072 178.875275,280.985687 
	C175.498093,280.172211 172.144852,279.211304 168.728180,278.622070 
	C164.498352,277.892609 162.777985,275.205322 162.709930,271.318146 
	C162.584579,264.158539 162.669418,256.995209 162.672577,249.833435 
	C162.674271,245.982971 164.521790,243.582184 168.298767,242.703598 
	C169.751266,242.365738 171.199493,241.718155 172.650940,241.714447 
	C181.958710,241.690674 185.725723,235.731277 187.922729,227.877029 
	C188.554047,225.620117 187.537567,224.050339 186.383453,222.398178 
	C175.777863,207.216034 177.912903,206.655884 189.295029,195.475204 
	C200.817307,184.156860 200.802719,183.999405 214.249954,192.917892 
	C217.846420,195.303116 220.886429,194.740250 224.879944,193.766357 
	C234.414230,191.441223 234.008286,183.432800 235.406845,176.766037 
	C236.494827,171.579681 239.165329,169.716583 243.881073,169.673416 
	C250.209595,169.615479 256.539246,169.631454 262.868073,169.672684 
	C267.533661,169.703064 270.864716,171.308426 271.511627,176.593445 
	C271.891785,179.699127 272.885376,182.725876 273.517700,185.805649 
	C274.117828,188.728561 275.697815,190.348785 278.437958,191.935730 
	C284.940155,195.701462 290.704132,196.349701 296.570679,190.401215 
M249.777008,336.910858 
	C257.088348,338.680176 258.363983,337.903534 259.748413,330.991791 
	C260.334076,328.067963 261.072266,325.175018 261.680969,322.255463 
	C262.218536,319.677307 263.771881,318.244812 266.319000,317.697113 
	C272.224030,316.427460 277.635284,313.924622 282.848663,310.945953 
	C286.304626,308.971375 289.746216,308.984070 293.180664,311.027985 
	C295.462524,312.385956 298.101410,313.353394 299.982758,315.128998 
	C303.329681,318.287842 305.226837,316.363800 307.854401,314.100159 
	C310.873077,311.499603 310.131622,309.462585 308.048584,306.992035 
	C302.187164,300.040253 300.323853,292.788818 306.525085,284.973175 
	C306.922546,284.472260 307.180969,283.775543 307.279083,283.135406 
	C308.898010,272.575378 314.926453,267.020660 325.680298,266.319550 
	C328.234161,266.153015 330.557190,265.147186 330.783752,261.416290 
	C331.060486,256.858459 329.061462,255.215576 325.060699,254.417145 
	C320.579742,253.522873 314.532806,254.295151 312.223816,250.269730 
	C308.167114,243.197403 305.575775,235.242004 302.794220,227.504227 
	C301.842865,224.857605 302.854370,221.988953 304.706635,219.567642 
	C305.903534,218.003067 306.546173,216.012695 307.751892,214.457092 
	C309.969147,211.596451 310.385895,209.444611 307.512238,206.346970 
	C304.295288,202.879303 301.981628,204.929520 299.312866,206.377991 
	C297.713684,207.245941 296.212524,208.302124 294.702911,209.326187 
	C290.758820,212.001770 286.520416,212.303894 282.456848,210.067856 
	C277.335236,207.249588 271.959381,205.152252 266.431702,203.398148 
	C264.205963,202.691849 262.486572,201.604263 261.856903,199.296478 
	C261.072449,196.421555 260.070160,193.546906 259.779266,190.610947 
	C259.385101,186.632843 258.493530,184.210739 253.592667,184.223587 
	C248.872025,184.235947 247.678711,186.336502 247.230667,190.417236 
	C246.388504,198.087494 243.898499,204.368530 234.667450,205.541107 
	C231.387131,205.957779 228.370682,208.361603 225.205505,209.795914 
	C220.401474,211.972870 215.726379,212.648254 211.300613,208.774231 
	C209.815643,207.474365 207.930939,206.639511 206.391663,205.391403 
	C203.922485,203.389297 202.277863,204.105469 200.016479,206.120804 
	C196.189590,209.531342 197.711670,212.387863 199.941437,215.614014 
	C203.092026,220.172485 206.147720,224.825272 203.447357,230.741562 
	C202.141312,233.603012 199.982056,236.286057 199.478104,239.264572 
	C197.690475,249.829788 191.120712,254.270996 181.094955,254.973312 
	C178.277176,255.170715 177.407974,256.781891 177.241364,259.640869 
	C176.995132,263.866028 178.199249,266.236542 182.665344,266.749115 
	C185.107559,267.029419 187.447495,268.300751 189.884827,268.501038 
	C193.870438,268.828583 195.633362,271.096375 196.794296,274.569366 
	C198.521774,279.737122 200.117874,284.906799 203.144684,289.635193 
	C205.484909,293.291016 204.991211,297.603180 202.538177,301.431519 
	C201.195190,303.527466 200.024826,305.750641 198.525513,307.725830 
	C196.455261,310.453125 197.350739,312.145996 199.572723,314.411865 
	C202.208878,317.100098 204.277740,317.563934 207.153809,315.052917 
	C208.632950,313.761536 210.529999,312.961334 212.168411,311.837402 
	C216.247635,309.039185 220.272690,308.706909 224.699326,311.285645 
	C229.435364,314.044617 234.453384,316.331024 239.846222,317.522339 
	C243.008453,318.220856 244.456421,320.135132 245.444794,323.091156 
	C246.912323,327.480286 246.666824,332.338074 249.777008,336.910858 
z"/>
<path fill="#000000" opacity="1.000000" stroke="none" 
	d="
M138.783356,357.426270 
	C135.855637,365.378632 129.902161,366.937592 124.201057,361.183685 
	C108.266289,345.101257 92.463326,328.887299 76.708923,312.627777 
	C72.658356,308.447357 74.533936,302.284821 80.234192,300.602509 
	C84.369225,299.382080 88.581367,298.417297 92.773743,297.398651 
	C95.940002,296.629364 97.004433,294.793518 96.498962,291.539825 
	C92.459137,265.535645 94.040359,239.885208 102.146530,214.807587 
	C108.643929,194.706970 118.695160,176.563446 132.376022,160.319733 
	C146.283096,143.807419 162.690857,130.525162 181.649170,120.438896 
	C190.130295,115.926743 199.110550,112.347473 208.370697,109.613945 
	C214.230438,107.884193 217.882187,109.174561 219.090958,113.336082 
	C220.500809,118.189827 218.274353,122.279839 212.690231,123.938171 
	C197.556488,128.432495 183.902527,135.777283 171.067078,144.818939 
	C153.250412,157.369492 139.412796,173.445145 128.363800,192.143555 
	C118.418282,208.974518 112.659843,227.229843 109.610550,246.346497 
	C106.998566,262.721588 108.317787,279.087036 111.421089,295.326294 
	C113.401413,305.689056 111.531570,308.402435 101.203949,310.311462 
	C100.079964,310.519196 98.826828,310.265289 98.197075,311.245331 
	C108.216232,321.047882 118.197708,330.813568 128.372055,340.767975 
	C132.272964,328.053864 136.336746,314.808990 140.497131,301.249237 
	C136.609940,301.012024 133.380066,302.400879 130.035263,302.961212 
	C125.741699,303.680450 121.781219,301.341095 120.850281,297.338531 
	C120.037453,293.843781 122.835426,289.692627 126.709503,288.704498 
	C134.095245,286.820618 141.483994,284.948364 148.877090,283.093597 
	C154.727844,281.625793 158.417953,284.377075 158.309280,290.292175 
	C158.172348,297.745056 154.707916,304.375488 152.717361,311.355621 
	C148.354309,326.655060 143.567230,341.833618 138.783356,357.426270 
z"/>
<path fill="#000000" opacity="1.000000" stroke="none" 
	d="
M343.572571,400.713013 
	C323.910309,412.509155 302.865936,419.458923 280.610321,422.138702 
	C248.639114,425.988312 217.865814,421.225037 188.605850,407.344330 
	C174.101105,400.463318 161.137955,391.383698 149.063080,380.920624 
	C146.523758,378.720245 145.412720,371.803802 147.608505,369.501984 
	C150.584717,366.382080 154.549576,366.817352 157.648712,368.819977 
	C162.639847,372.045135 167.098358,376.085114 171.855270,379.683838 
	C191.018234,394.181061 212.672440,403.192596 236.178741,407.294556 
	C256.111694,410.772919 275.914093,409.454742 295.690155,404.307617 
	C313.449219,399.685486 329.764740,392.491425 344.732544,382.080658 
	C349.483765,378.776031 354.158203,375.274963 358.422577,371.376770 
	C364.795074,365.551514 369.406799,365.367401 375.600189,371.347809 
	C376.997803,372.697357 378.144867,374.428772 380.926971,375.193207 
	C384.487030,361.920013 388.024719,348.730316 391.929382,334.172333 
	C377.308624,336.456390 363.793610,340.119415 350.085052,343.639435 
	C350.867340,346.432007 353.036163,347.586578 354.532959,349.266754 
	C357.746979,352.874359 358.503662,359.600006 355.921600,362.060669 
	C352.273834,365.536926 347.145233,364.666809 342.875732,359.949646 
	C338.771454,355.414978 334.635010,350.907379 330.425842,346.470276 
	C324.944550,340.692169 326.610168,334.101868 334.309387,332.256500 
	C356.038330,327.048523 377.791351,321.937866 399.570007,316.941895 
	C406.519196,315.347778 410.828064,319.713898 409.016571,326.628632 
	C403.182434,348.898743 397.185364,371.126984 391.099335,393.329773 
	C389.599304,398.802124 382.616241,400.275146 378.078491,396.098083 
	C374.306183,392.625671 370.611511,389.035217 367.298676,384.479218 
	C359.121460,389.562500 352.241455,396.160217 343.572571,400.713013 
z"/>
<path fill="#000000" opacity="1.000000" stroke="none" 
	d="
M365.054138,140.939148 
	C390.957458,164.784180 406.882019,193.878143 413.871033,227.866486 
	C418.148834,248.669952 418.731628,269.616608 414.401154,290.525726 
	C413.352905,295.586945 410.733551,297.056213 405.284698,296.304321 
	C400.698944,295.671570 400.357727,292.064667 400.761200,288.773651 
	C402.035614,278.378998 402.937653,267.997406 402.685150,257.503510 
	C401.855957,223.042862 390.120361,192.730652 368.244781,166.241058 
	C349.692322,143.775452 326.643372,127.895821 298.868317,118.914627 
	C292.283661,116.785446 290.888306,113.682610 292.347992,106.693748 
	C292.876617,104.162743 294.362122,101.797951 293.913483,98.302399 
	C280.110565,102.017082 266.538330,105.669678 252.087921,109.558617 
	C262.339417,120.606514 271.862610,130.869537 281.918182,141.706253 
	C283.322510,137.817932 284.651489,134.669785 285.591125,131.409409 
	C286.930939,126.760506 290.318481,126.118141 294.208405,126.921158 
	C298.374512,127.781204 300.028778,130.992783 299.212494,134.830811 
	C297.975250,140.647827 296.104034,146.329651 294.513824,152.072144 
	C294.071686,153.668762 293.669159,155.276367 293.251099,156.879623 
	C291.337250,164.219437 284.203888,166.392242 278.878876,160.806656 
	C268.470490,149.888840 258.478394,138.575378 248.215775,127.516792 
	C244.026276,123.002350 239.614594,118.691429 235.237122,114.355423 
	C233.435333,112.570679 231.873077,110.575439 230.980377,108.276497 
	C229.439713,104.308807 231.453033,100.073067 235.807419,98.827499 
	C249.335709,94.957779 262.936005,91.337364 276.528809,87.696625 
	C284.838470,85.470940 293.152618,83.245026 301.525116,81.275803 
	C310.346130,79.201080 314.209747,83.402344 311.803589,92.213150 
	C310.669159,96.367264 309.424561,100.491234 308.246185,104.633484 
	C308.158264,104.942558 308.201599,105.288979 308.142395,106.391197 
	C329.051270,114.093002 348.505188,124.836876 365.054138,140.939148 
z"/>
</svg>